<svg version="1.1" xmlns="http://www.w3.org/2000/svg" viewBox="-1987.7563981712642 -1495.040057373047 6982.8285829246815 2273.280065917969"><desc>Created with Snap</desc><defs></defs><g><rect x="-1987.7563981712642" y="-1495.040057373047" width="6982.8285829246815" height="2273.280065917969" fill="#37393a" style=""></rect><g transform="matrix(19.3053,0,0,19.3053,-1888.0883,-1326.3599)">
<g>
	
		<rect x="67.219" y="19.246" transform="matrix(0.8185 -0.5746 0.5746 0.8185 -12.3056 48.2078)" fill="none" stroke="#ffffff" stroke-width="2.4" stroke-linecap="round" stroke-linejoin="round" stroke-miterlimit="20" width="5.829" height="48.661" style=""></rect>
	
		<rect x="46.62" y="12.249" transform="matrix(0.8185 -0.5746 0.5746 0.8185 0.8141 31.045)" fill="none" stroke="#ffffff" stroke-width="2.4" stroke-linecap="round" stroke-linejoin="round" stroke-miterlimit="20" width="5.829" height="3.97" style=""></rect>
	
		<rect x="46.358" y="14.993" transform="matrix(0.8185 -0.5746 0.5746 0.8185 -1.657 34.2777)" fill="none" stroke="#ffffff" stroke-width="2.4" stroke-linecap="round" stroke-linejoin="round" stroke-miterlimit="20" width="14.111" height="9.535" style=""></rect>
	<path fill="none" stroke="#ffffff" stroke-width="2.4" stroke-linecap="round" stroke-linejoin="round" stroke-miterlimit="20" d="
		M49.306,26.19c-6.751,5.466-12.365,11.351-16.535,17.09c1.255-7.323,5.877-15.253,13.109-21.97" style=""></path>
	<path fill="none" stroke="#ffffff" stroke-width="2.4" stroke-linecap="round" stroke-linejoin="round" stroke-miterlimit="20" d="
		M57.341,13.076c9.114-4.97,18.607-6.831,26.241-5.467c-7.147,2.066-14.961,5.584-22.771,10.41" style=""></path>
</g>
<line fill="none" stroke="#ffffff" stroke-width="2.2" stroke-linecap="round" stroke-linejoin="round" stroke-miterlimit="20" x1="20.286" y1="29.744" x2="20.286" y2="29.744" style=""></line>
<line fill="none" stroke="#ffffff" stroke-width="2.2" stroke-linecap="round" stroke-linejoin="round" stroke-miterlimit="20" x1="28.32" y1="44.389" x2="22.175" y2="33.186" style=""></line>
<line fill="none" stroke="#ffffff" stroke-width="2.2" stroke-linecap="round" stroke-linejoin="round" stroke-miterlimit="20" x1="40.437" y1="48.744" x2="49.101" y2="45.432" style=""></line>
<line fill="none" stroke="#ffffff" stroke-width="2.2" stroke-linecap="round" stroke-linejoin="round" stroke-miterlimit="20" x1="47.917" y1="35.625" x2="47.89" y2="35.598" style=""></line>
<line fill="none" stroke="#ffffff" stroke-width="2.2" stroke-linecap="round" stroke-linejoin="round" stroke-miterlimit="20" x1="38.384" y1="45.608" x2="45.274" y2="38.485" style=""></line>
<line fill="none" stroke="#ffffff" stroke-width="2.2" stroke-linecap="round" stroke-linejoin="round" stroke-miterlimit="20" x1="12.923" y1="38.788" x2="12.463" y2="38.479" style=""></line>
<line fill="none" stroke="#ffffff" stroke-width="2.2" stroke-linecap="round" stroke-linejoin="round" stroke-miterlimit="20" x1="25.364" y1="47.148" x2="16.773" y2="41.375" style=""></line>
<g>
	<path d="M31.857,50.893c-11.639,0-21.107,9.469-21.107,21.106c0,11.639,9.469,21.105,21.107,21.105s21.105-9.467,21.105-21.105
		C52.962,60.361,43.495,50.893,31.857,50.893z M31.857,90.706c-10.316,0-18.709-8.393-18.709-18.707s8.393-18.706,18.709-18.706
		c10.314,0,18.707,8.392,18.707,18.706S42.171,90.706,31.857,90.706z" fill="#ffffff" style=""></path>
	<path d="M39.002,77.972c0.057-0.42-0.039-0.772-0.304-1.111c-0.267-0.332-0.61-0.525-1.052-0.586
		c-0.437-0.059-0.783,0.033-1.085,0.278c-1.282,0.934-2.732,1.4-4.335,1.4c-1.634,0-3.101-0.623-4.356-1.85
		c-1.262-1.236-1.901-2.717-1.901-4.406c0-1.689,0.645-3.178,1.92-4.423c1.275-1.243,2.74-1.873,4.356-1.873
		c1.586,0,3.029,0.465,4.291,1.382c0.359,0.293,0.704,0.387,1.128,0.337c0.426-0.06,0.765-0.254,1.034-0.59
		c0.26-0.331,0.359-0.708,0.3-1.152c-0.061-0.447-0.251-0.79-0.582-1.043c-1.211-0.923-2.524-1.513-3.909-1.82v-2.712
		c0-0.553-0.447-1-1-1s-1,0.447-1,1v2.465c-0.028,0-0.055-0.007-0.084-0.007c-0.786,0.008-1.531,0.127-2.256,0.302v-2.76
		c0-0.553-0.447-1-1-1s-1,0.447-1,1v3.507c-0.885,0.446-1.725,1-2.486,1.739c-1.894,1.847-2.817,4.009-2.817,6.609
		c0,2.566,0.949,4.798,2.819,6.631c0.759,0.744,1.599,1.299,2.484,1.745v3.391c0,0.553,0.447,1,1,1s1-0.447,1-1v-2.652
		c0.724,0.17,1.47,0.284,2.256,0.284c0.028,0,0.055-0.006,0.084-0.007v2.374c0,0.553,0.447,1,1,1s1-0.447,1-1v-2.62
		c1.366-0.299,2.683-0.867,3.924-1.753C38.737,78.777,38.938,78.412,39.002,77.972z" fill="#ffffff" style=""></path>
</g>
<line fill="none" stroke="#ffffff" stroke-width="2.2" stroke-linecap="round" stroke-linejoin="round" stroke-miterlimit="20" x1="16.279" y1="49.736" x2="16.279" y2="49.736" style=""></line>
<line fill="none" stroke="#ffffff" stroke-width="2.2" stroke-linecap="round" stroke-linejoin="round" stroke-miterlimit="20" x1="52.293" y1="53.732" x2="52.293" y2="53.732" style=""></line>
<line fill="none" stroke="#ffffff" stroke-width="2.2" stroke-linecap="round" stroke-linejoin="round" stroke-miterlimit="20" x1="56.296" y1="49.729" x2="56.296" y2="49.729" style=""></line>
<desc>Created with Snap</desc><defs></defs></g><g><g transform="matrix(1.024,0,0,-1.024,0,0)"><path d="M163 0L110 0Q99 0 93 6Q87 13 87 23L87 677Q87 687 93 693Q99 700 110 700L163 700Q174 700 180 693Q186 687 186 677L186 23Q186 13 180 6Q174 0 163 0ZM492 -10Q442 -10 401 10Q360 30 335 64Q310 98 310 141Q310 210 366 251Q422 292 512 305L661 326L661 355Q661 403 633 430Q606 457 544 457Q511 457 488 447Q466 437 452 423Q438 409 430 395Q426 386 421 382Q417 378 410 378L367 378Q358 378 351 384Q345 391 345 400Q345 415 356 437Q368 459 392 480Q416 501 453 515Q491 530 545 530Q605 530 646 514Q687 499 710 473Q734 447 744 414Q755 381 755 347L755 23Q755 13 748 6Q742 0 732 0L686 0Q675 0 669 6Q663 13 663 23L663 66Q650 48 628 30Q606 13 573 1Q540 -10 492 -10ZM513 65Q554 65 588 82Q622 100 641 137Q661 174 661 230L661 258L545 241Q474 231 438 207Q402 184 402 148Q402 120 418 101Q435 83 460 74Q486 65 513 65ZM972 0L922 0Q912 0 905 6Q899 13 899 23L899 497Q899 507 905 513Q912 520 922 520L969 520Q979 520 985 513Q992 507 992 497L992 453Q1018 487 1057 508Q1097 530 1159 530Q1224 530 1269 501Q1315 473 1338 422Q1362 372 1362 305L1362 23Q1362 13 1355 6Q1349 0 1339 0L1289 0Q1279 0 1272 6Q1266 13 1266 23L1266 300Q1266 370 1232 409Q1198 449 1132 449Q1070 449 1032 409Q995 370 995 300L995 23Q995 13 988 6Q982 0 972 0ZM1578 0L1528 0Q1518 0 1511 6Q1505 13 1505 23L1505 497Q1505 507 1511 513Q1518 520 1528 520L1575 520Q1585 520 1591 513Q1598 507 1598 497L1598 453Q1624 487 1663 508Q1703 530 1765 530Q1830 530 1875 501Q1921 473 1944 422Q1968 372 1968 305L1968 23Q1968 13 1961 6Q1955 0 1945 0L1895 0Q1885 0 1878 6Q1872 13 1872 23L1872 300Q1872 370 1838 409Q1804 449 1738 449Q1676 449 1638 409Q1601 370 1601 300L1601 23Q1601 13 1594 6Q1588 0 1578 0ZM2429 0L2147 0Q2136 0 2130 6Q2124 13 2124 23L2124 676Q2124 687 2130 693Q2136 700 2147 700L2421 700Q2496 700 2543 675Q2591 651 2613 609Q2636 567 2636 515Q2636 474 2622 444Q2609 415 2589 396Q2569 378 2550 368Q2589 349 2619 306Q2650 263 2650 202Q2650 147 2625 101Q2600 55 2550 27Q2501 0 2429 0ZM2222 324L2222 81L2416 81Q2480 81 2515 116Q2550 151 2550 202Q2550 255 2515 289Q2480 324 2416 324L2222 324ZM2222 619L2222 404L2406 404Q2470 404 2503 433Q2536 463 2536 514Q2536 565 2503 592Q2470 619 2406 619L2222 619ZM2850 0L2803 0Q2793 0 2786 6Q2780 13 2780 23L2780 687Q2780 697 2786 703Q2793 710 2803 710L2850 710Q2861 710 2867 703Q2873 697 2873 687L2873 23Q2873 13 2867 6Q2861 0 2850 0ZM3235 -10Q3159 -10 3108 19Q3057 48 3030 99Q3003 151 3000 217Q2999 234 2999 260Q2999 287 3000 303Q3003 370 3030 421Q3058 472 3109 501Q3160 530 3235 530Q3310 530 3361 501Q3412 472 3439 421Q3467 370 3470 303Q3471 287 3471 260Q3471 234 3470 217Q3467 151 3440 99Q3413 48 3362 19Q3311 -10 3235 -10ZM3235 67Q3297 67 3334 106Q3371 146 3374 222Q3375 237 3375 260Q3375 283 3374 298Q3371 374 3334 413Q3297 453 3235 453Q3173 453 3135 413Q3098 374 3096 298Q3095 283 3095 260Q3095 237 3096 222Q3098 146 3135 106Q3173 67 3235 67ZM3806 -10Q3735 -10 3683 17Q3632 45 3604 96Q3576 148 3574 220Q3573 235 3573 260Q3573 285 3574 300Q3576 372 3604 423Q3632 475 3683 502Q3735 530 3806 530Q3864 530 3905 514Q3947 498 3974 473Q4001 448 4014 419Q4028 390 4029 364Q4030 354 4023 348Q4016 342 4006 342L3958 342Q3948 342 3943 346Q3938 351 3933 362Q3915 411 3884 431Q3853 451 3807 451Q3747 451 3709 414Q3672 377 3669 295Q3668 259 3669 225Q3672 142 3709 105Q3747 69 3807 69Q3853 69 3884 89Q3915 109 3933 158Q3938 169 3943 174Q3948 179 3958 179L4006 179Q4016 179 4023 172Q4030 166 4029 156Q4028 135 4020 113Q4012 91 3994 68Q3977 46 3951 28Q3925 11 3889 0Q3853 -10 3806 -10ZM4219 0L4172 0Q4162 0 4155 6Q4149 13 4149 23L4149 687Q4149 697 4155 703Q4162 710 4172 710L4219 710Q4229 710 4235 703Q4242 697 4242 687L4242 339L4439 503Q4451 513 4457 516Q4464 520 4479 520L4532 520Q4541 520 4547 514Q4553 508 4553 499Q4553 495 4550 490Q4548 485 4541 480L4310 288L4566 39Q4578 29 4578 21Q4578 12 4572 6Q4566 0 4557 0L4505 0Q4490 0 4483 3Q4476 7 4465 17L4242 230L4242 23Q4242 13 4235 6Q4229 0 4219 0Z" fill="#ffffff" style=""></path></g></g></g></svg>